<svg width="11" height="10" viewBox="0 0 11 10" fill="none" xmlns="http://www.w3.org/2000/svg">
<path fill-rule="evenodd" clip-rule="evenodd" d="M1.14441e-05 5C1.14441e-05 5.16576 0.0658588 5.32473 0.183069 5.44194C0.30028 5.55915 0.459251 5.625 0.625011 5.625H7.86626L5.18251 8.3075C5.1244 8.36561 5.07831 8.43459 5.04686 8.51052C5.01541 8.58644 4.99922 8.66782 4.99922 8.75C4.99922 8.83218 5.01541 8.91355 5.04686 8.98948C5.07831 9.0654 5.1244 9.13439 5.18251 9.1925C5.24062 9.25061 5.30961 9.2967 5.38553 9.32815C5.46146 9.3596 5.54283 9.37579 5.62501 9.37579C5.70719 9.37579 5.78857 9.3596 5.86449 9.32815C5.94042 9.2967 6.0094 9.25061 6.06751 9.1925L9.81751 5.4425C9.87572 5.38444 9.92189 5.31547 9.9534 5.23954C9.98491 5.16361 10.0011 5.08221 10.0011 5C10.0011 4.91779 9.98491 4.83639 9.9534 4.76045C9.92189 4.68452 9.87572 4.61555 9.81751 4.5575L6.06751 0.807496C5.95015 0.690138 5.79098 0.624207 5.62501 0.624207C5.45904 0.624207 5.29987 0.690138 5.18251 0.807496C5.06515 0.924854 4.99922 1.08403 4.99922 1.25C4.99922 1.41597 5.06515 1.57514 5.18251 1.6925L7.86626 4.375H0.625011C0.459251 4.375 0.30028 4.44084 0.183069 4.55805C0.0658588 4.67526 1.14441e-05 4.83424 1.14441e-05 5Z" fill="url(#paint0_linear_24_215)"/>
<defs>
<linearGradient id="paint0_linear_24_215" x1="-1.53016" y1="12.0888" x2="8.99242" y2="-0.781098" gradientUnits="userSpaceOnUse">
<stop stop-color="#0B67D8"/>
<stop offset="1" stop-color="#3A95FF"/>
</linearGradient>
</defs>
</svg>
