<svg width="20" height="20" viewBox="0 0 20 20" fill="none" xmlns="http://www.w3.org/2000/svg">
<path fill-rule="evenodd" clip-rule="evenodd" d="M19.9999 16.9999V2.99994C19.9999 1.34308 18.6568 -6.10352e-05 16.9999 -6.10352e-05H2.99994C1.34308 -6.10352e-05 -6.10352e-05 1.34308 -6.10352e-05 2.99994V16.9999C-6.10352e-05 18.6568 1.34308 19.9999 2.99994 19.9999H16.9999C18.6568 19.9999 19.9999 18.6568 19.9999 16.9999ZM16.9999 1.9999C17.5522 1.9999 17.9999 2.44761 17.9999 2.9999V16.9999C17.9999 17.5522 17.5522 17.9999 16.9999 17.9999H2.9999C2.44761 17.9999 1.9999 17.5522 1.9999 16.9999V2.9999C1.9999 2.44761 2.44761 1.9999 2.9999 1.9999H16.9999Z" fill="#A7B8CC"/>
<path d="M16.3505 6.14997L16.1383 8.63582C16.109 8.97904 15.8184 9.2345 15.4892 9.20639C15.16 9.17829 14.9168 8.87726 14.9461 8.53404L15.0247 7.61427L10.9204 11.7334C10.7959 11.8579 10.6265 11.921 10.4553 11.9066C10.2894 11.8969 10.1354 11.8157 10.0301 11.6825L8.81482 10.164L4.67648 14.3303C4.52382 14.4965 4.29652 14.5627 4.0846 14.5026C3.87268 14.4425 3.71033 14.2658 3.66183 14.0426C3.61334 13.8193 3.68653 13.5855 3.85241 13.4337L8.44939 8.81819C8.56898 8.69783 8.73076 8.63416 8.89619 8.64236C9.06163 8.65055 9.21591 8.72987 9.32231 8.86142L10.5863 10.3716L14.3125 6.60197L13.3171 6.51698C12.9879 6.48887 12.7448 6.18785 12.7741 5.84462C12.8034 5.5014 13.094 5.24595 13.4232 5.27405L15.8075 5.47762C16.1367 5.50572 16.3798 5.80675 16.3505 6.14997Z" fill="#A7B8CC"/>
</svg>
