<svg width="60" height="60" viewBox="0 0 60 60" fill="none" xmlns="http://www.w3.org/2000/svg">
<rect opacity="0.1" width="60" height="60" fill="url(#paint0_linear_24_182)"/>
<path d="M18.81 29.7113C18.8122 28.2874 19.1116 26.8797 19.6888 25.5782C20.2661 24.2767 21.1086 23.1099 22.1625 22.1525L25.2088 25.2125V17.5H17.5L20.345 20.3275C18.5389 22.007 17.2548 24.1712 16.6462 26.5613C16.0376 28.9514 16.1303 31.4662 16.9133 33.8049C17.6962 36.1437 19.1362 38.2075 21.0611 39.7495C22.986 41.2914 25.3142 42.2463 27.7675 42.5V39.9038C25.2906 39.584 23.015 38.3729 21.3663 36.497C19.7177 34.621 18.8089 32.2087 18.81 29.7113Z" fill="url(#paint1_linear_24_182)"/>
<path d="M43.75 30.3538C43.7583 27.1666 42.5859 24.0893 40.459 21.7157C38.3321 19.342 35.4015 17.8402 32.2325 17.5V20.0963C34.7149 20.4306 36.9914 21.6549 38.639 23.5416C40.2865 25.4283 41.193 27.849 41.19 30.3538C41.1874 31.768 40.8877 33.1659 40.3101 34.4569C39.7326 35.7479 38.8902 36.903 37.8375 37.8475L34.7325 34.7875V42.5H42.47L39.655 39.6725C40.9457 38.4875 41.9762 37.0473 42.6811 35.4432C43.3861 33.839 43.75 32.1059 43.75 30.3538Z" fill="url(#paint2_linear_24_182)"/>
<path d="M30.3625 35L29.6912 34.3875C27.3037 32.2225 25.7262 30.7937 25.7262 29.0412C25.7229 28.7054 25.7866 28.3724 25.9135 28.0615C26.0405 27.7506 26.2282 27.4681 26.4657 27.2307C26.7031 26.9932 26.9856 26.8055 27.2965 26.6785C27.6074 26.5516 27.9404 26.4879 28.2762 26.4912C28.6732 26.4941 29.065 26.582 29.4251 26.7491C29.7852 26.9163 30.1053 27.1587 30.3637 27.46C30.6221 27.1588 30.9419 26.9165 31.3018 26.7494C31.6617 26.5823 32.0532 26.4943 32.45 26.4912C32.7858 26.4879 33.1189 26.5516 33.4298 26.6785C33.7407 26.8055 34.0231 26.9932 34.2606 27.2307C34.498 27.4681 34.6857 27.7506 34.8127 28.0615C34.9397 28.3724 35.0033 28.7054 35 29.0412C35 30.7937 33.4237 32.2225 31.035 34.3925L30.3625 35Z" fill="url(#paint3_linear_24_182)"/>
<defs>
<linearGradient id="paint0_linear_24_182" x1="69.18" y1="78.6" x2="-4.26" y2="-3.93567e-06" gradientUnits="userSpaceOnUse">
<stop stop-color="#0B67D8"/>
<stop offset="1" stop-color="#3A95FF"/>
</linearGradient>
<linearGradient id="paint1_linear_24_182" x1="29.5298" y1="50.25" x2="5.19844" y2="38.2521" gradientUnits="userSpaceOnUse">
<stop stop-color="#0B67D8"/>
<stop offset="1" stop-color="#3A95FF"/>
</linearGradient>
<linearGradient id="paint2_linear_24_182" x1="45.5122" y1="50.25" x2="21.1819" y2="38.2534" gradientUnits="userSpaceOnUse">
<stop stop-color="#0B67D8"/>
<stop offset="1" stop-color="#3A95FF"/>
</linearGradient>
<linearGradient id="paint3_linear_24_182" x1="36.419" y1="37.6378" x2="26.1027" y2="25.6038" gradientUnits="userSpaceOnUse">
<stop stop-color="#0B67D8"/>
<stop offset="1" stop-color="#3A95FF"/>
</linearGradient>
</defs>
</svg>
