<svg width="60" height="60" viewBox="0 0 60 60" fill="none" xmlns="http://www.w3.org/2000/svg">
<rect opacity="0.1" width="60" height="60" fill="url(#paint0_linear_24_148)"/>
<path d="M42.7295 29.7949L31.4092 18.4805L30.6504 17.7217C30.4775 17.5499 30.2437 17.4535 30 17.4535C29.7563 17.4535 29.5225 17.5499 29.3496 17.7217L17.2705 29.7949C17.0934 29.9714 16.9533 30.1815 16.8587 30.413C16.7641 30.6445 16.7169 30.8925 16.7197 31.1426C16.7314 32.1738 17.5898 32.9971 18.6211 32.9971H19.8662V42.539H40.1338V32.9971H41.4053C41.9062 32.9971 42.3779 32.8008 42.7324 32.4463C42.907 32.2723 43.0453 32.0654 43.1393 31.8376C43.2333 31.6098 43.2813 31.3656 43.2803 31.1191C43.2803 30.6211 43.084 30.1494 42.7295 29.7949ZM31.6406 40.4297H28.3594V34.4531H31.6406V40.4297ZM38.0244 30.8877V40.4297H33.5156V33.75C33.5156 33.1025 32.9912 32.5781 32.3437 32.5781H27.6562C27.0088 32.5781 26.4844 33.1025 26.4844 33.75V40.4297H21.9756V30.8877H19.1631L30.0029 20.0566L30.6797 20.7334L40.8398 30.8877H38.0244Z" fill="url(#paint1_linear_24_148)"/>
<defs>
<linearGradient id="paint0_linear_24_148" x1="69.18" y1="78.6" x2="-4.26" y2="-3.93567e-06" gradientUnits="userSpaceOnUse">
<stop stop-color="#0B67D8"/>
<stop offset="1" stop-color="#3A95FF"/>
</linearGradient>
<linearGradient id="paint1_linear_24_148" x1="47.3441" y1="50.3156" x2="16.8076" y2="15.7117" gradientUnits="userSpaceOnUse">
<stop stop-color="#0B67D8"/>
<stop offset="1" stop-color="#3A95FF"/>
</linearGradient>
</defs>
</svg>
