<svg width="20" height="20" viewBox="0 0 20 20" fill="none" xmlns="http://www.w3.org/2000/svg">
<path fill-rule="evenodd" clip-rule="evenodd" d="M19.9999 16.9999V2.99994C19.9999 1.34308 18.6568 -6.10352e-05 16.9999 -6.10352e-05H2.99994C1.34308 -6.10352e-05 -6.10352e-05 1.34308 -6.10352e-05 2.99994V16.9999C-6.10352e-05 18.6568 1.34308 19.9999 2.99994 19.9999H16.9999C18.6568 19.9999 19.9999 18.6568 19.9999 16.9999ZM13.9999 7.9999C12.8954 7.9999 11.9999 8.89533 11.9999 9.9999C11.9999 11.1045 12.8954 11.9999 13.9999 11.9999C15.1045 11.9999 15.9999 11.1045 15.9999 9.9999C15.9999 8.89533 15.1045 7.9999 13.9999 7.9999ZM18 6.99998H11C10.4477 6.99998 9.99998 7.44769 9.99998 7.99998V12C9.99998 12.5523 10.4477 13 11 13H18V6.99998ZM16.9999 1.9999C17.5522 1.9999 17.9999 2.44761 17.9999 2.9999V4.9999H10.9999C9.34304 4.9999 7.9999 6.34304 7.9999 7.9999V11.9999C7.9999 13.6568 9.34304 14.9999 10.9999 14.9999H17.9999V16.9999C17.9999 17.5522 17.5522 17.9999 16.9999 17.9999H2.9999C2.44761 17.9999 1.9999 17.5522 1.9999 16.9999V2.9999C1.9999 2.44761 2.44761 1.9999 2.9999 1.9999H16.9999Z" fill="#A7B8CC"/>
</svg>
