<svg width="24" height="24" viewBox="0 0 24 24" fill="none" xmlns="http://www.w3.org/2000/svg">
<path fill-rule="evenodd" clip-rule="evenodd" d="M3.6 0H7.2C9.18823 0 10.8 1.61177 10.8 3.6V7.2C10.8 9.18823 9.18823 10.8 7.2 10.8H3.6C1.61177 10.8 0 9.18823 0 7.2V3.6C0 1.61177 1.61177 0 3.6 0ZM7.2 8.4C7.86274 8.4 8.4 7.86274 8.4 7.2V3.6C8.4 2.93726 7.86274 2.4 7.2 2.4H3.6C2.93726 2.4 2.4 2.93726 2.4 3.6V7.2C2.4 7.86274 2.93726 8.4 3.6 8.4H7.2ZM7.2 13.2H3.6C1.61177 13.2 0 14.8118 0 16.8V20.4C0 22.3882 1.61177 24 3.6 24H7.2C9.18823 24 10.8 22.3882 10.8 20.4V16.8C10.8 14.8118 9.18823 13.2 7.2 13.2ZM7.2 21.6C7.86274 21.6 8.4 21.0627 8.4 20.4V16.8C8.4 16.1373 7.86274 15.6 7.2 15.6H3.6C2.93726 15.6 2.4 16.1373 2.4 16.8V20.4C2.4 21.0627 2.93726 21.6 3.6 21.6H7.2ZM20.4 13.2H16.8C14.8118 13.2 13.2 14.8118 13.2 16.8V20.4C13.2 22.3882 14.8118 24 16.8 24H20.4C22.3882 24 24 22.3882 24 20.4V16.8C24 14.8118 22.3882 13.2 20.4 13.2ZM20.4 21.6C21.0627 21.6 21.6 21.0627 21.6 20.4V16.8C21.6 16.1373 21.0627 15.6 20.4 15.6H16.8C16.1373 15.6 15.6 16.1373 15.6 16.8V20.4C15.6 21.0627 16.1373 21.6 16.8 21.6H20.4ZM20.4 0H16.8C14.8118 0 13.2 1.61177 13.2 3.6V7.2C13.2 9.18823 14.8118 10.8 16.8 10.8H20.4C22.3882 10.8 24 9.18823 24 7.2V3.6C24 1.61177 22.3882 0 20.4 0ZM20.4 8.4C21.0627 8.4 21.6 7.86274 21.6 7.2V3.6C21.6 2.93726 21.0627 2.4 20.4 2.4H16.8C16.1373 2.4 15.6 2.93726 15.6 3.6V7.2C15.6 7.86274 16.1373 8.4 16.8 8.4H20.4Z" fill="#2B8AF8"/>
</svg>
