<svg width="20" height="20" viewBox="0 0 20 20" fill="none" xmlns="http://www.w3.org/2000/svg">
<path fill-rule="evenodd" clip-rule="evenodd" d="M19.31 7.10999L18 6.67999L18.62 5.45999C18.8171 5.07508 18.7445 4.60706 18.44 4.29999L15.7 1.54999C15.3929 1.24548 14.9249 1.17286 14.54 1.36999L13.32 1.99999L12.89 0.699994C12.7506 0.270656 12.3409 -0.0120676 11.89 0.00999439H8.05999C7.60913 -0.0120676 7.19939 0.270656 7.05999 0.699994L6.67999 1.99999L5.45999 1.36999C5.07508 1.17286 4.60706 1.24548 4.29999 1.54999L1.54999 4.29999C1.24548 4.60706 1.17286 5.07508 1.36999 5.45999L1.99999 6.67999L0.699994 7.10999C0.270656 7.24939 -0.0120676 7.65913 0.00999439 8.10999V11.99C-0.0120676 12.4409 0.270656 12.8506 0.699994 12.99L1.99999 13.42L1.37999 14.64C1.18286 15.0249 1.25548 15.4929 1.55999 15.8L4.29999 18.45C4.60706 18.7545 5.07508 18.8271 5.45999 18.63L6.67999 18L7.10999 19.3C7.24939 19.7293 7.65913 20.0121 8.10999 19.99H11.99C12.4409 20.0121 12.8506 19.7293 12.99 19.3L13.42 18L14.64 18.62C15.0249 18.8171 15.4929 18.7445 15.8 18.44L18.55 15.69C18.8545 15.3829 18.9271 14.9149 18.73 14.53L18 13.32L19.3 12.89C19.7293 12.7506 20.0121 12.3409 19.99 11.89V8.05999C19.9911 7.63008 19.7173 7.24757 19.31 7.10999ZM4.99997 9.99997C4.99997 7.23855 7.23855 4.99997 9.99997 4.99997C11.3261 4.99997 12.5978 5.52676 13.5355 6.46444C14.4732 7.40212 15 8.67389 15 9.99997C15 12.7614 12.7614 15 9.99997 15C7.23855 15 4.99997 12.7614 4.99997 9.99997ZM7.00001 10C7.00001 11.6569 8.34316 13 10 13C10.7957 13 11.5587 12.6839 12.1213 12.1213C12.6839 11.5587 13 10.7957 13 10C13 8.34316 11.6569 7.00001 10 7.00001C8.34316 7.00001 7.00001 8.34316 7.00001 10ZM17.39 11.42L18 11.22V8.77997L17.39 8.57997C16.8348 8.40073 16.3855 7.98801 16.16 7.44997C15.9384 6.90977 15.964 6.29974 16.23 5.77997L16.52 5.19997L14.8 3.47997L14.22 3.76997C13.7001 4.03208 13.0919 4.05467 12.5541 3.83185C12.0162 3.60903 11.6021 3.16291 11.42 2.60997L11.22 1.99997H8.77997L8.57997 2.60997C8.3978 3.16291 7.98374 3.60903 7.44589 3.83185C6.90805 4.05467 6.29981 4.03208 5.77997 3.76997L5.19997 3.47997L3.47997 5.19997L3.76997 5.77997C4.03595 6.29974 4.06152 6.90977 3.83997 7.44997C3.61441 7.98801 3.16516 8.40073 2.60997 8.57997L1.99997 8.77997V11.22L2.60997 11.42C3.16516 11.5992 3.61441 12.0119 3.83997 12.55C4.06152 13.0902 4.03595 13.7002 3.76997 14.22L3.47997 14.8L5.19997 16.52L5.77997 16.23C6.29981 15.9679 6.90805 15.9453 7.44589 16.1681C7.98374 16.3909 8.3978 16.837 8.57997 17.39L8.77997 18H11.22L11.42 17.39C11.6021 16.837 12.0162 16.3909 12.5541 16.1681C13.0919 15.9453 13.7001 15.9679 14.22 16.23L14.8 16.52L16.52 14.8L16.23 14.22C15.964 13.7002 15.9384 13.0902 16.16 12.55C16.3855 12.0119 16.8348 11.5992 17.39 11.42Z" fill="#A7B8CC"/>
</svg>
