<svg width="20" height="20" viewBox="0 0 20 20" fill="none" xmlns="http://www.w3.org/2000/svg">
<path fill-rule="evenodd" clip-rule="evenodd" d="M19.9999 2.99994V16.9999C19.9999 18.6568 18.6568 19.9999 16.9999 19.9999H2.99994C1.34308 19.9999 -6.10352e-05 18.6568 -6.10352e-05 16.9999V2.99994C-6.10352e-05 1.34308 1.34308 -6.10352e-05 2.99994 -6.10352e-05H16.9999C18.6568 -6.10352e-05 19.9999 1.34308 19.9999 2.99994ZM8.9999 3.99998H14.9999C15.5522 3.99998 15.9999 4.44769 15.9999 4.99998C15.9999 5.55226 15.5522 5.99998 14.9999 5.99998H8.9999C8.44761 5.99998 7.9999 5.55226 7.9999 4.99998C7.9999 4.44769 8.44761 3.99998 8.9999 3.99998ZM5.99999 4.99999C5.99841 4.86932 5.97123 4.74022 5.91999 4.61999C5.86934 4.49881 5.79832 4.3872 5.70999 4.28999C5.61278 4.20166 5.50117 4.13064 5.37999 4.07999C5.00759 3.9234 4.57755 4.00625 4.28999 4.28999C4.20165 4.3872 4.13063 4.49881 4.07999 4.61999C4.02874 4.74022 4.00157 4.86932 3.99999 4.99999C3.99845 5.2658 4.1028 5.52128 4.28999 5.70999C4.48162 5.89273 4.73522 5.99631 4.99999 5.99999C5.13116 6.00337 5.26131 5.97598 5.37999 5.91999C5.50117 5.86935 5.61278 5.79833 5.70999 5.70999C5.89272 5.51836 5.9963 5.26476 5.99999 4.99999ZM5.37998 9.07995C5.00759 8.92336 4.57755 9.00621 4.28999 9.28995C4.19738 9.38382 4.1258 9.49631 4.07999 9.61995C4.02874 9.74018 4.00157 9.86928 3.99999 9.99995C3.99845 10.2658 4.1028 10.5212 4.28999 10.71C4.48162 10.8927 4.73522 10.9963 4.99999 11C5.13066 10.9984 5.25976 10.9712 5.37998 10.92C5.50117 10.8693 5.61278 10.7983 5.70998 10.71L5.82998 10.56C5.86783 10.5042 5.8981 10.4437 5.91998 10.38C5.95578 10.3244 5.98277 10.2637 5.99998 10.2C6.00489 10.1334 6.00489 10.0665 5.99998 9.99995C5.9963 9.73519 5.89272 9.48159 5.70998 9.28995C5.61278 9.20162 5.50117 9.1306 5.37998 9.07995ZM8.9999 8.99994H14.9999C15.5522 8.99994 15.9999 9.44765 15.9999 9.99994C15.9999 10.5522 15.5522 10.9999 14.9999 10.9999H8.9999C8.44761 10.9999 7.9999 10.5522 7.9999 9.99994C7.9999 9.44765 8.44761 8.99994 8.9999 8.99994ZM5.70993 14.2899C5.61273 14.2016 5.50112 14.1306 5.37993 14.0799C5.00754 13.9233 4.5775 14.0062 4.28994 14.2899C4.19889 14.385 4.12753 14.4972 4.07994 14.6199C3.97296 14.862 3.97296 15.1379 4.07994 15.3799C4.12753 15.5027 4.19889 15.6148 4.28994 15.7099C4.48157 15.8926 4.73517 15.9962 4.99994 15.9999C5.13061 15.9983 5.25971 15.9712 5.37993 15.9199C5.50112 15.8693 5.61273 15.7982 5.70993 15.7099C5.80098 15.6148 5.87234 15.5027 5.91993 15.3799C6.02691 15.1379 6.02691 14.862 5.91993 14.6199C5.87234 14.4972 5.80098 14.385 5.70993 14.2899ZM8.9999 13.9999H14.9999C15.5522 13.9999 15.9999 14.4476 15.9999 14.9999C15.9999 15.5522 15.5522 15.9999 14.9999 15.9999H8.9999C8.44761 15.9999 7.9999 15.5522 7.9999 14.9999C7.9999 14.4476 8.44761 13.9999 8.9999 13.9999ZM16.9999 1.9999C17.5522 1.9999 17.9999 2.44761 17.9999 2.9999V16.9999C17.9999 17.5522 17.5522 17.9999 16.9999 17.9999H2.9999C2.44761 17.9999 1.9999 17.5522 1.9999 16.9999V2.9999C1.9999 2.44761 2.44761 1.9999 2.9999 1.9999H16.9999Z" fill="#A7B8CC"/>
</svg>
